/* XPM */
static char * loader_xpm[] = {
"64 24 3 1",
" 	c None",
".	c #000000",
"+	c #55AA00",
"...++..................................++.......................",
"...++...........................................................",
"...++......++++..+++++++++..+++++++++..++.+++++...+++++..++++...",
"...++.....++..++.++..++..++.++..++..++.++.++..++.++..++.++..+...",
"...++.....++..++.++..++..++.++..++..++.++.++..++.++..++.+++.....",
"...++.....++++++.++..++..++.++..++..++.++.++..++.++..++.+++++...",
"...++.....++.....++..++..++.++..++..++.++.++..++.++..++....++...",
"...++.....++..++.++..++..++.++..++..++.++.++..++.++..++.++..+...",
"...++++++..++++..++..++..++.++..++..++.++.++..++..+++++..++++...",
".....................................................++.........",
".................................................++..++.........",
"..................................................++++..........",
"................................................................",
"................................................................",
"................................................................",
"................................................................",
"................................................................",
"................................................................",
"................................................................",
"................................................................",
"................................................................",
"................................................................",
"................................................................",
"                                                                "};
