/* XPM */
static char * ter_0_48_xpm[] = {
"4 4 3 1",
" 	c None",
".	c #AA55AA",
"+	c #555555",
".++.",
"++++",
"++++",
"++++"};
