/* XPM */
static char * ter_0_26_xpm[] = {
"14 14 7 1",
" 	c None",
".	c #555555",
"+	c #AA55AA",
"@	c #550000",
"#	c #AA0000",
"$	c #AA5500",
"%	c #FFAA55",
".++++++++++++.",
"@#$..+#%.++#%+",
"@@#...@#++.@#+",
"@......+.+...+",
"@.....+...+.++",
"@............+",
"@#$.....+..#%+",
"@@#....+...@#+",
"@....+..+....+",
"#........+...+",
"#.......+.+.++",
"##%...#$.+.#%+",
"@@#...@#...@#+",
"#####@#@@@@@@."};
