/* XPM */
static char * ter_1_03_xpm[] = {
"29 43 6 1",
" 	c #000100",
".	c #AA0000",
"+	c #550000",
"@	c #FF0000",
"#	c #555555",
"$	c #AAAAAA",
"              +              ",
"             +#+             ",
"             ++$             ",
"             +##             ",
"            +@+$+            ",
"            .+###            ",
"            @++$#            ",
"           .@+##$+           ",
"           .+.+#$#           ",
"           @@+#$##           ",
"          +..+#+$$+          ",
"          ..+#+#$##          ",
"          .@.+#+$$#          ",
"         +@.+++$#$$+         ",
"         +.@.+++$$$#         ",
"         .@@++#+$$##         ",
"        .@@@.++##$$#+        ",
"        @...+++##$$##        ",
"        .@@+.+++$#$$#        ",
"       +@@@.+.+#+$$$$#       ",
"       ..@+.+.#+#$$$$#       ",
"       ..@@.++++##$$$$       ",
"      +@@@@+.++++$$$$#+      ",
"      @.@@.@++#++##$$##      ",
"      .@@@@@++++##$$$$#      ",
"     ..@@@..@+#++#$#$#$+     ",
"     .@...@.++++##$$$$##     ",
"     @.@@@@...+#+$#$#$##     ",
"    ..@@.@+.+++####$$$##+    ",
"    .@@.@..++#++#$$$$$$##    ",
"    @@@@@+.+.++####$$##$#    ",
"   +@@@.@...++#++#$#$$$$#+   ",
"   ..@@@@..+.#+##$#$$$$###   ",
"   .@.@@@.+.++#+##$#$$#$##   ",
"  +.@@@.@..++++#+###$$$$#$+  ",
"  ..@@@@..+..++++#$$$$#$###  ",
"  @..@.@..++.+#+###$$$$$$##  ",
" +@@.@@..++++#++##$#$$$####+ ",
" @.@@.....+.++#++##$$$$$#$## ",
" @.@@@@..@+.+++###$$#$$$#### ",
"+.@@@@.@@+.++++#++#+#$$$$#$##",
"@@@@@@.@..+.++#++##$$#$$$$##+",
".@.@.@.@.@++.++#++$#$#$$#+##+"};
