/* XPM */
static char * ter_0_27_xpm[] = {
"17 15 6 1",
" 	c None",
".	c #000000",
"+	c #AA0000",
"@	c #AA5500",
"#	c #550000",
"$	c #FFAA55",
"........++.......",
".....++@@@@+.....",
"...#++@$$$$+++...",
"...++@@+@$$@+@@+.",
".#++@@++@$@+@@+@+",
"#+##@++@+@+@$$$@+",
".##++#@@++@$$@@@.",
".+###+++#+$@@+@+.",
"###++@+##@@++@@++",
"##++@+#+@+#+@@$@+",
"##+@+@@++++@++@+.",
".+#+@@$+@+##+@@+.",
"..++++@@+###+++..",
"...##++++#++.#...",
".....###+........"};
