/* XPM */
static char * ter_0_18_xpm[] = {
"42 99 7 1",
" 	c None",
".	c #000000",
"+	c #555555",
"@	c #AA55AA",
"#	c #550000",
"$	c #AA0000",
"%	c #AA5500",
"...................+@+....................",
"..................@@@@@@..................",
".................+@@@@@@@@................",
".................@@@+@@@@@@...............",
".................@++++@@@@@@..............",
".................+++++@@@@@@@.............",
"................#+++++@@@@@@@.............",
"............++#.$#+#+@@@@@@@@+............",
"...........+@@..#$#+@@+#+@@@@+............",
"..........#++.++#++@@##+++@@@.............",
".........#$#.#@@++@@##++++@@+.............",
".........#..##@@+@@##++++@@@..............",
"..........$#+++@+++#$+++@@@...............",
".........$#++++++++#%$#@@@...++@+.........",
"........+#+@++@++++@#..+.....@@@@@........",
"......+@++@@@@+++++.@@+....+@@@@@@........",
"....+@@@@+@@@@+++.+@@@@+..+@++@@@@@.......",
"...+@@@@@@@@++++.@@@@@@@..@+++@@@@@+......",
"..$+++@@@@@++++.+@+@@@+.+++++@@@@@@@......",
".$##++@@@@@@++.+++++@+.+++++@@@++@@+......",
"%$#+++@@@@@@@.$#++++.+++++++@@++@@@.......",
"$##+@@@@++@@..$%##+.+++++++@@++@@@........",
"$#++@@+++++@...$#.+++++++++++++@@.........",
".#+@@@##++@@....+++++@@+++++++@+..........",
"..++@##++@@..++++++@@@++++++..............",
"....##+++@..++@@@+@@@@+++++.+..+@@+.......",
"....$#++@...+@@@@@@@@+++.+@@..@@@@@@......",
".....$+@...+@@+@@@@@++.+@@@.@++@+@@@+.....",
"..........@++++@@@@+.++@@.+@++++@@@@@.....",
"..........+##+@@@@@.##++.@@@+++@@@+@+.....",
".........#$#+@@+++@.##.+++++++@++++@......",
"..........#+@@+++#....++++++++++++@.......",
"...........#+++$....+@@@++@++++##.........",
".............#$$..##++@@@@+++...+.........",
".................#+++@@@@++.@@++.++@+.....",
"................#$++@@@@@+#+@@@.+@@@@+....",
"................#$#+@++++.$#+..++++@@@....",
"................#%$+++++.++..++++@@@@@....",
".................$$$##..+@@++++@@@@+@@....",
"..................###..+@@++++@@+++@@.....",
".....................##@@+++++++++@.......",
"....................##+@@+++++....+.......",
"....................#+@@@@+++.+@@+........",
"....................+@@@@@+.#+@@@+.++.....",
".....................+@@@+.###+@+.@@@@+...",
"......................++..#$$#...@@@@@@+..",
".............................++++@+@@@@+..",
".........................+@+++++++++@@@+..",
".......................#++@@+@@+++@@@@@+..",
"......................#++++@@@@+@@@+@@@...",
"......................#+@@@@@@+++++++@+...",
".....................$#+@@@+@@++..+###....",
"......................$@@+++++.+@+........",
".......................#+++...++@@@.......",
".............................+#@@@+.......",
".............................$#@@@+.......",
".............................$#+@@+..+@+..",
".......................$$$+..#$#+@.++@@@+.",
"......................$###++++....++@@@@@.",
"......................#++++@@@++++++++@@@+",
".....................#++++++@@++++++@@@@@+",
".....................#@@@@++@@@+@@@@@@@@@@",
"......................++@@@@@@@++@@@++@@@+",
"......................$++++++@@++++++@@@+.",
".......................##++@@@@+++@+@@+...",
"...........................+@+++..++......",
"...............................+@@+.......",
"..............................#++@@.......",
".............................+#++@+.......",
".........................$#+..++@.+..+....",
"........................$$+++@+..++@@@+...",
"........................$++@@@@+++++@@@+..",
"........................$@@@@@@@+++@@@@+..",
"........................$#++@++.+@@@@@@...",
"...........................++.@+.++@@+....",
"..............................##+.+@......",
".............................#$#+@........",
"..............................##+@........",
".............................+.+@+........",
".........................$$+@++.+++.......",
".........................$#+@@+@@@@+......",
"..........................#@@@++@@@@......",
".........................#$@++.++@@@+.....",
".............................#+..+@@+.....",
"..............................#++.++......",
".............................#@@+.........",
"..........................#+@+@+..........",
".........................$++@@+...........",
"..........................#+@@@+++@.......",
"...........................#+@@++@@@......",
"..............................+@+@@@......",
".............................#@+.+@+......",
"..........................$@+++...........",
"..........................$+@+@@@.........",
"...........................+@+@+@.........",
".............................#+...........",
".............................+............",
"............................#@............",
"............................#$............"};
