/* XPM */
static char * ter_0_00_xpm[] = {
"42 39 6 1",
" 	c None",
".	c #000000",
"+	c #AA5500",
"@	c #550000",
"#	c #AA0000",
"$	c #FFAA55",
"..............++@@........................",
".........+#$++@@#@#+@$$+..................",
".......+$+$$@#@@#++#$$$+@@#####$#.........",
".....#++$$$+##@##+++++$$$#$$@##@$+$#$#....",
"...###++$$$@+@@##$++$$$$#@#$#++##@#$#$....",
"..@@#@++$#$#@@@@+++++$$$$#+$++$+#$$$$+....",
"..@##@+$$$@@#@##+@++++++$+#+$$+$+$$$$$....",
"..@@##$###@+@@#@#++++$$$+#@#+$$$$$###$#...",
".@#@#@@@@@++@#@@@++#@+$$##@@++$$$$#$##$#..",
".@@##@+##@@@#@###@#+#+$#@@#@#+#$+#$$#+##@.",
"@@####@$+@@@@#+@#+#@+$#@##@#@##@#+$$$$#@@@",
"@@@@#+#@@@@@@#+@@@@+###@#@@@@#@+++##$$+##@",
"@@@@++$##@@@@#@@##+@@@@@@@##@@@+$$##+$##@@",
"@@@#++###@+@@@@@@#@#+@@+#@@@@###$$$$#$+#@@",
"@@#@#@#++#@@@#@#++++$++#+$$@####+$$+$#+##@",
"@@#@@@#+++#@##@+@#+$$$$#$$+#@#@#+++$$$##@@",
".@@@@#+$$#+####@+$#$$$+$#++#@###++$$+#++#@",
"..@##+$$##+#@@##+$$$$$$$++@@@#++#++$+++#@@",
"..#@@++$+@#++#+++$#$##+$$+@#@@##$++$+$+#@.",
".@##++@##@#+$++####@+$$+@@@##@@+$#$$$#+$@.",
".@@##++@@+$++@@@@+#@$$+@#@@@@##+$+#$$$$$#.",
".@#@#$+@++++$#@@@@@##+@#@@@@#@++$##$#$+##.",
".@@@##@$+@++$$#@+#@#@@#@@@#@@@##@+$#$++$#.",
"..@@##@+@@@@++$+#@@@#@#@##@.@@@+#++#$$$#@.",
"..@##@#####+$#++#+@###@###..@@@@#+$$@$$#..",
"..@@##@#@#+$$$+$$##@@##++...@@@##+$++#$@..",
"..@@@@#+@+###$++$#$++@#+#.....@###$+##+@..",
"..@@@@+@#@#+$$$+$$$++@++#.....@@+#+@$+#...",
"..@#@@#@+#++$$+$$+$$$++#@.....@@+###+@....",
"..@@@#@@##+++$++@$$$$$##@.....@@#+###@....",
"..@@@@@##++$++$###+#$$@#@......@@###@.....",
"...@@#@@##+###++@+#++#$@.......@@#@@@.....",
"...@@@@@@###+###++++##@........@@@@.......",
"....@@@@#@@##+++$+$##@..........@@@.......",
"....@..@@@@@#+$$$$$#@.....................",
"........@@@@##$$$##@......................",
".........@@@@##+##@.......................",
".........@@@@@@#@@@.......................",
".........@.@@.@@@@........................"};
