/* XPM */
static char * ter_0_12_xpm[] = {
"20 17 9 1",
" 	c None",
".	c #000000",
"+	c #550000",
"@	c #005500",
"#	c #555555",
"$	c #AA55AA",
"%	c #AA0000",
"&	c #55AA00",
"*	c #AA5500",
"....++@@#+.++@#.....",
"..+++#@$@@++###@....",
".+%%##$&&$@@#$&&@@#.",
".+*+#@@@&&$@$&&&&&@#",
".+%%+##@$&$@$$$&&&$@",
"..+*%++##$##@@$$&&&@",
"..+%*%+++###@@$$$&$$",
".+++%++#@@$#@@@$$&#@",
".+%%%+#@@$@@@@@@$$@#",
".+%*++#@@&&$@$&&&$@.",
"+%*%+#@@@$&&$$$&&&@.",
"+%*%++#@@@$&@@$$&&#.",
"+%*%++###@@##@@$&$..",
".+%*%++####++#@&$@..",
"..+%*%++#++%%++@@#..",
"...+%%%+++++.%++#...",
".....++++++........."};
