/* XPM */
static char * ter_0_41_xpm[] = {
"8 24 4 1",
" 	c None",
".	c #000000",
"+	c #005500",
"@	c #55AA00",
".+......",
"+@+...+.",
"++@...++",
"++@..+@+",
"+@@.+@++",
"+@@++@+.",
"+++++@+.",
".++.+@+.",
".+..++..",
"++..++..",
"++..++..",
"++..++..",
".++.+@..",
".@++++..",
".@++.+..",
"+@@+.+..",
"+@++.+..",
"++...+..",
"++......",
"++......",
".@......",
".+......",
".+......",
".+......"};
