/* XPM */
static char * ter_0_49_xpm[] = {
"17 10 6 1",
" 	c None",
".	c #000000",
"+	c #555555",
"@	c #AA55AA",
"#	c #550000",
"$	c #AA0000",
"....+++++++++....",
"....+@@@+@@@+....",
"....+@@@+@@@+....",
"..+++++++++++++..",
"..+@@@+###+@@@+..",
"..+@@@+$$#+@@@+..",
"+++++++$$#+++++++",
"+@@@+@+$$#+@+@@@+",
"+@@@+@+$$#+@+@@@+",
"+++++++$$#+++++++"};
