/* XPM */
static char * ter_0_43_xpm[] = {
"29 29 6 1",
" 	c None",
".	c #000000",
"+	c #AA0000",
"@	c #AA5500",
"#	c #FFAA55",
"$	c #550000",
".+++.........................",
"+@#@+........................",
"+###+........................",
"$@#@+$.......................",
".$++$+++.....................",
"...$+@#@+....................",
"....+###+....................",
"....$@#@+$...................",
".....$++$+++.................",
".......$+@#@+................",
"........+###+................",
"........$@#@+$...............",
".........$++$+++.............",
"...........$+@#@+............",
"............+###+............",
"............$@#@+$...........",
".............$++$+++.........",
"...............$+@#@+........",
"................+###+........",
"................$@#@+$.......",
".................$++$+++.....",
"...................$+@#@+....",
"....................+###+....",
"....................$@#@+$...",
".....................$++$+++.",
".......................$+@#@+",
"........................+###+",
"........................$@#@+",
".........................$++."};
