/* XPM */
static char * ter_0_44_xpm[] = {
"13 13 9 1",
" 	c None",
".	c #000000",
"+	c #AA0000",
"@	c #AA5500",
"#	c #FFAA55",
"$	c #550000",
"%	c #555555",
"&	c #005500",
"*	c #AA55AA",
"....++@@##@..",
"...++@@@@##@.",
"..+++@+@+#+#@",
"....$.....$..",
"..%%+%%%%%+%%",
"%%%.+..%..+..",
"....+..%..+..",
"..%&&&*******",
"..%%&%%*%%*%*",
"..%&&&*******",
"..%%%*%%*%%*%",
"..%&&&*******",
"..%%&%%*%%*%*"};
