/* XPM */
static char * ter_0_35_xpm[] = {
"11 28 5 1",
" 	c None",
".	c #000000",
"+	c #550000",
"@	c #AA0000",
"#	c #AA5500",
".......++..",
"......+++..",
"......+@+..",
"......+@@..",
"......+@#..",
"......+@@..",
"......+@+..",
".....+@+...",
".+++.++....",
"+@@++++....",
"+#@@++.....",
"+@@+.......",
".+@++......",
"..+@+......",
"...+++.....",
"....++.....",
"....+++....",
".....++....",
"......++...",
".......+...",
".......+...",
"......++...",
"......+++..",
"......+.+..",
"......+.+..",
".....++..+.",
".....+....+",
".....+....."};
