/* XPM */
static char * ter_0_29_xpm[] = {
"47 11 8 1",
" 	c None",
".	c #000000",
"+	c #550000",
"@	c #AA0000",
"#	c #AA5500",
"$	c #FFAA55",
"%	c #AA55AA",
"&	c #555555",
"...+@@@+.......+@@@+.......+@@@+.......+@@@+...",
".+@#####@+...+@#####@+...+@#####@+...+@#####@+.",
".@#$#$$#$@%%%@#$#$$#$@%%%@#$#$$#$@%%%@#$#$$#$@.",
"+#$####$#$+%+#$####$#$+%+#$####$#$+%+#$####$#$+",
"@#$##$####@&@#$##$####@&@#$##$####@&@#$##$####@",
"@$##$$$#$#@&@$##$$$#$#@&@$##$$$#$#@&@$##$$$#$#@",
"@$#$#$$#$#@&@$#$#$$#$#@&@$#$#$$#$#@&@$#$#$$#$#@",
"+#$####$##+&+#$####$##+&+#$####$##+&+#$####$##+",
".@#$#$$#$@&&&@#$#$$#$@&&&@#$#$$#$@&&&@#$#$$#$@.",
".+@#####@+...+@#####@+...+@#####@+...+@#####@+.",
"...+@@@+.......+@@@+.......+@@@+.......+@@@+..."};
