/* XPM */
static char * ter_0_11_xpm[] = {
"30 32 9 1",
" 	c None",
".	c #000000",
"+	c #550000",
"@	c #555555",
"#	c #AA55AA",
"$	c #005500",
"%	c #55AA00",
"&	c #AA0000",
"*	c #AA5500",
"..........+@@##$$$$...........",
".......++@@$$###%###$$$$......",
"....&&++@@@@$###%%%%%#%$$$@...",
"...&&++@@@@$########%%%%%@$@..",
"...&&@@@@@$$######%#%%%%%%@@@.",
"...&+@@@@$$##$$#######%%%%%@@.",
"..++@@@@@$$@$$##@$$@@@@%#%%@$.",
".&&+@@++@@@@@@@@@@@@@@@$$%$@$.",
"&&++@@++@@@@@@@@+++++@$@$@@$@.",
"*&+++@+++@@+&+++++@@@@@$$$$$..",
"***++++++&&&&+++@@##@##@$$@@..",
"+**+++&&+&+&*&&+@@@%%#%%#$$...",
".&*&&&&++++&&&@@@@##%%%%%#$...",
"..&&+++++@++++@@@@##%#%%%%$@..",
"..&+++++@@@++@@@###%%%%%%%%$@.",
"...&+++@@$$$@+@@###%#%%%%%%$$.",
"..&*&+@@@$#$$$$@######%%%%#$$.",
".&**++@@@$$#%@$$@@###%#%%%#$@.",
".***&&+@@@##@@@@@@@@##@#%%$$..",
".***&&+++@@@+++++@++@@#@%$$@..",
".***&+++@@++++++++*++@@@@@$...",
".***&&++++++++++++*&&+++@$$...",
".&&*&&&&+++@++++&&&&+++++$$@..",
"..&**&+&+@@@@@@@@&+&+@@@@@$$..",
"....&&&&+@@$$###$@++@@####$$$.",
"...&&*&+@@$$##%%$@@@$#%%%%%$$@",
"..&&**++@@@@@###%$$@##%%%%%#$@",
"..&*&*&+++@@@$##%$$####%#%%%#@",
"..&***&&+++@@@@@$$$##%###@#$$.",
"...***&&&&++++@@++@@@##@@@@@..",
"...+*&**&&+++++++++@@@@@+@@...",
".....+&**&++.....+++++++......"};
