/* XPM */
static char * ter_0_14_xpm[] = {
"22 29 9 1",
" 	c None",
".	c #000000",
"+	c #005500",
"@	c #555555",
"#	c #550000",
"$	c #55AA00",
"%	c #AA55AA",
"&	c #AA0000",
"*	c #AA5500",
".............++@@#....",
"...........@++$+%@#...",
".........+%$++%$@##...",
"........@%$$+%%%@&#...",
"........@+$$$$%@@#&#..",
".........+++$$+%@@#&#.",
".......+++%%%%$%@#@##.",
"......@$$$%%%@@$@@##..",
"......+$$$$%%@@@##@#..",
".......+$$$$$%@#&&*&#.",
"........++%$%%@@#&*&..",
".......++%%%@@#@@#&*&.",
"......+$$+%%@###@@#&&.",
"......$$$$%@@#&##@####",
"......++$$$%@@#&&#@*&#",
".......+%$@@%@#&&&#&&.",
".....++$%%@#@@@#&*&#..",
"....+$%$%@@#@##@#**&#.",
"....+$$$$%@@#&&#@&**#.",
"...+$$$%@@%@#&&&###*&.",
".+$+$$$$@@#@@#&*&##&#.",
"+$$$%%%$%####@&*&&##..",
"+$$$%%%@%@#&&#@&**&#..",
".+%$$%@@#@@#*&##&*&#..",
"..@@%%@###@@&*&##**...",
"....@%@#&&##@***#&#...",
"......%@#&&###**&#....",
".......@#&&&##&&#.....",
".........#####........"};
