/* XPM */
static char * ter_0_26_xpm[] = {
"16 14 8 1",
" 	c None",
".	c #555555",
"+	c #AA55AA",
"@	c #000000",
"#	c #550000",
"$	c #AA0000",
"%	c #AA5500",
"&	c #FFAA55",
".++++++++++++.@@",
"#$%..+$&.++$&+@@",
"##$...#$++.#$+@@",
"#......+.+...+@@",
"#.....+...+.++@@",
"#............+@@",
"#$%.....+..$&+@@",
"##$....+...#$+@@",
"#....+..+....+@@",
"$........+...+@@",
"$.......+.+.++@@",
"$$&...$%.+.$&+@@",
"##$...#$...#$+@@",
"$$$$$#$######.@@"};
