/* XPM */
static char * ter_1_04_xpm[] = {
"17 24 7 1",
" 	c #000000",
".	c #AA0000",
"+	c #550000",
"@	c #FF0000",
"#	c #555555",
"$	c #AA55AA",
"%	c #AAAAAA",
" +#.@..+++++++$%$",
" #.@.++++++++#%%+",
"+.@.++++++++#%%$+",
".@.+++++++##%%#+ ",
"@@.+++++##$%$#+++",
"@.++++##$$$.++++$",
"@.++##$$...++++#%",
".++##....++++++%%",
" +#.@..+++++++$%$",
" #.@.++++++++#%%+",
"+.@.++++++++#%%$+",
".@.+++++++##%%#+ ",
"@@.+++++##$%$#+++",
"@.++++##$$$.++++$",
"@.++##$$...++++#%",
".++##....++++++%%",
" +#.@..+++++++$%$",
" #.@.++++++++#%%+",
"+.@.++++++++#%%$ ",
".@.+++++++##%%#+ ",
"@@.+++++##$%$#+++",
"@.++++##$$$.++++$",
"@.++##$$...++++#%",
".++##....++++++%%"};
