/* XPM */
static char * ter_0_22_xpm[] = {
"27 19 7 1",
" 	c None",
".	c #000000",
"+	c #555555",
"@	c #AA55AA",
"#	c #550000",
"$	c #AA0000",
"%	c #AA5500",
"..+@@......................",
".+++@@.....................",
"++++@@+....................",
"++@@+@@...............@@@..",
"+++@@@@..............+@@@@.",
"++++@@@.............+++@@@+",
"#+#++@@+............+++@@@+",
"++#++@@@............++++@@@",
".+##++@@+..........@+#++@@@",
".+#$+++@@.......+@@++$#++@@",
"..#$++++@@++..++@++#+#+++@.",
"..+#$+@@@@@@+++.@+##++++@@.",
"...+$##@@@+@@.++.+$$#++@@..",
"....%$+#+@@++.@@+.#$+++@@..",
".....$#++++@.++@@@.#@+@@...",
"......$#++##.#++@@.@@++....",
".......$#++.##++@@.++......",
".............#++++.........",
"..............##+.........."};
