/* XPM */
static char * ter_0_39_xpm[] = {
"3 11 4 1",
" 	c None",
".	c #000000",
"+	c #005500",
"@	c #55AA00",
".++",
"+++",
".++",
".+@",
".+@",
".+@",
".+@",
"..@",
"..@",
"..+",
"..+"};
