/* XPM */
static char * ter_0_17_xpm[] = {
"9 9 3 1",
" 	c None",
".	c #000000",
"+	c #555555",
"...+++...",
".+++++++.",
".+++++++.",
"+++++++++",
"+++++++++",
"+++++++++",
".+++++++.",
".+++++++.",
"...+++..."};
