/* XPM */
static char * ter_0_08_xpm[] = {
"18 17 4 1",
" 	c None",
".	c #000000",
"+	c #005500",
"@	c #55AA00",
".++...............",
".@@++.............",
"+++@++............",
".++@@+++..........",
"...@@++++.........",
"...@+@+@+.+.......",
"...+@+@@@++.......",
"....+++@@@@.......",
".....@+@@++++.....",
"......+@+@@+++....",
".......+@@@@+.....",
".......++@@@@++...",
"........+.++@++++.",
"..........++@@@@+.",
"............+++@++",
".............+@@@+",
"..............+@++"};
