/* XPM */
static char * ter_0_46_xpm[] = {
"8 9 5 1",
" 	c None",
".	c #000000",
"+	c #AA55AA",
"@	c #555555",
"#	c #005500",
"..+@....",
"@@@@@@@+",
"@##@#@#@",
"@@@@@@@+",
"..+@....",
"..+@....",
"..+@....",
"..+@....",
"..+@...."};
