/* XPM */
static char * ter_0_13_xpm[] = {
"22 29 9 1",
" 	c None",
".	c #000000",
"+	c #550000",
"@	c #555555",
"#	c #005500",
"$	c #AA55AA",
"%	c #55AA00",
"&	c #AA0000",
"*	c #AA5500",
"....+@@##.............",
"...+@$#%##@...........",
"...++@%$##%$#.........",
"...+&@$$$#%%$@........",
"..+&+@@$%%%%#@........",
".+&+@@$#%%###.........",
".++@+@$%$$$$###.......",
"..++@@%@@$$$%%%@......",
"..+@++@@@$$%%%%#......",
".+&*&&+@$%%%%%#.......",
"..&*&+@@$$%$##........",
".&*&+@@+@@$$$##.......",
".&&+@@+++@$$#%%#......",
"++++@++&+@@$%%%%......",
"+&*@+&&+@@$%%%##......",
".&&+&&&+@$@@%$#.......",
"..+&*&+@@@+@$$%##.....",
".+&**+@++@+@@$%$%#....",
".+**&@+&&+@@$%%%%#....",
".&*+++&&&+@$@@$%%%#...",
".+&++&*&+@@+@@%%%%#%#.",
"..++&&*&@++++$%$$$%%%#",
"..+&**&@+&&+@$@$$$%%%#",
"..+&*&++&*+@@+@@$%%$#.",
"...**++&*&@@+++@$$@@..",
"...+&+***@++&&+@$@....",
"....+&**+++&&+@$......",
".....+&&++&&&+@.......",
"........+++++........."};
