/* XPM */
static char * ter_0_06_xpm[] = {
"21 24 4 1",
" 	c None",
".	c #000000",
"+	c #005500",
"@	c #55AA00",
"...............+...+.",
"..............+++.+++",
".............++@++++@",
".........+.++@@@@@@@+",
"........++++@@@++@@@+",
".......++@@@@@@+@.+..",
".....+++@@@+@++++....",
"....++@+@+@+@+.+.....",
"....+@@@@++.+........",
"....+@@+@+...........",
"....+@@+++...........",
"...++@@++............",
"...+@@+.+............",
".+.@+@+.+............",
".++@@++..............",
".@+@@+...............",
".@+@@+...............",
"+@@@++...............",
"+@+@+................",
"+@@@+................",
"+@@@+................",
"+@+@+................",
"++++.................",
".++.................."};
