/* XPM */
static char * ter_0_10_xpm[] = {
"106 56 6 1",
" 	c None",
".	c #000000",
"+	c #AA5500",
"@	c #AA0000",
"#	c #FFAA55",
"$	c #550000",
"...................................+@+@.......@++##.......................................................",
"................................@@$++++$$@@@$@++@#++##$#$#@#..............................................",
".............................$@+#$#+++$@$$$$$+@++#@#++++#$##$+@...........................................",
"............................@@@++@##@#@@@@+$$@++$$+@@++++$$@$+@@..........................................",
"...........................$$@#++++++$+++@@@@@@@@$$$@@++$+$@++@@@.........................................",
"..........................$@+@+++++#++@@@+@++$@@$+@+$$@+$+@@+##+@.........................................",
"........................$@@@@@++++@+#@@##@@+#+#@#@+#+@@@@@@+@++##.........................................",
"......................$$$$@@@@@@@@@@##@@@@++#+@@+#+#+$$$$$+@@@###@........................................",
"....................$$$$@$$$$@+++$$@@$$+##++##@###++@@@$$$+@##@#++#.......................................",
"..................$@$$$$$@@$$@@@$$+++@@#@###++####$+@$$$$$+@+###++++++....................................",
"................@@@$@$@$$$@$@$@+@$$$+@#$#@##+#+++@@+$@$$$$$$@##++++$+@+@#.................................",
"...............+@$@#@$@$$$@$$$@$+$$++@$######++++++@$@@$@$@@@+###+++++#@@#@#..............................",
"..............@+@+#@@$$$$@$$$$$@@$####@####++#++++@$@@$$@@@+#+@#@#+@@@@$#@##@####.........................",
".............+#+@@@$@@$$@$$$$$+@@@+##@@@+####+##++@$+@@@@$+####+@++@+@@#+#@@@#+#+##+......................",
".............+++@@+$@@$$+@+$@$@+###+##+@+++####++++@$@@$$@$###@@++++@@@+$++#+#########....................",
".............$$@+@@#++$++@+$@@$+####++@@@++####@+@@@$@@$+@@$$@@@@@+++@@+$+@$+@@#@@##@++##.................",
"............+$$@+@+@@+$@+@++$@$$$+##+++@@$++###@@#++$$@@#+@@@$$$+@+@@@@$++@@$+#@@@++#++####...............",
"........###@@$+@$@@+@@+@@+@@++@+$$$#+@@+@$@+++#@##@+@@+++@@#+@++@@@@@+@$@+$@@@+++@@@#@++#+###.............",
".......##+#@$$$@@+@@@+@$+++#++++$$@$@@@@+@$@+#@#+$@@@++@@+###$#+#@@@$@+$$$$$@+@@@$$+@@+@@+@##@$...........",
"......####@+@$$$$+@@+@@$@+++#+++#+$$$@$@@$@@+@@##@@@+@@#@##+@+++#@@+$$@@$$@$$$$@$@++$++@++++$@$$..........",
"....++#@###+$+$@@$@@++@$@++++#+###$@$$$@$$@+++@$++@@@++@#@###++@+++@$$$@$$$$@@@+@+$@++#+@+#+$@$###........",
"..##++#@++#@$$$$$$$$$@@$@+@+$###@@@$@$$@$@@@+@$@$@+@@+++#####$##$+++$$$@+@$@@@$+@@@@@++++@@+@$+####.......",
".+#+@+#@@@#+$$$$$$$+@$$@@+@+##+#@#@@$@$$$@$@+$@@@@+@+@@+####+#+++++@$@@+@$@@++++#++#@$@+++@$@#+++###......",
".++++@@@@@$@$$$$$$$+@@$@++$@###+#+@+@$$$$@$@@$$@$@+$+++#######++++$@$+@@@@@@@++++@@@@$@@@@+@@+#####++.....",
".@@@@@$@@@@$$$$$$$+@@$@@@@$@$#####@@@@$$$$$@@@@$$@@@@@++#@@##+$+$++@$@$$@+@++@+@++#++@@@@++@@@#@++#+@##...",
"$$$@@@++@@@$$$$$$@$$$$@+@@$@@##@@$+@$@$$$$$@@@$$$@@@@@@++#@@+@@++$++$$$$@+@@+#@@$+#+$@$$@@@@@###@#+@+###..",
"$$$$+@@@+$@$$@$$$@$$@@+$@$$$@@@@@@@$$$$$$$$$$@$@@$@$++#+$###@#++++$+@@@$@+@@##+@$@@+@$+$@@@@###+++$@#++#@.",
"$++@+@@$$$@$@$$$$$$$$@$$$$$@@@++#+#@$$$$$$$$$$$@@$+@+@+###+@#+++#+@+@$@@@@+@##+++#+#@$$@$@@+$++$@+$++++##.",
"$@@++++$#@++$$$$@$$$$$$$$$@@$+#+++#$$$$$$$$$$$@$@@$@@#+@###@+#+$$++@@$$@@@+###$@++++$+++$@+@++$#++$+#+@++@",
"$@#+##@++@@++$@$$@+@$$$@@$@+++++#@@@$$$$$$@@@$$@@+@@+++##@@@@@$$+++$+$$@$@+###+$$++$@+@$@$@@$$@@@$$++#@$##",
"$@@@@+@@++$@+$@$$@+@$$$$@@$$@@++$@@$$$$$$@@@+@@$@@+++@@@@#@$$@+++#$++@$++++++++#+$$++@++@$$$@$@$$$$++#@@#+",
".$@+@+#@@@@@$$$$$$$$$$$@$$@@$@@@$@@$$$$$$$@@@+++@+@++$@+@$$@@@++$$@$+@@@@@@+#+$@$$+$$@$+@$$$$$$$$@+++++###",
".....++@+@@#+$$@$$$$$$$$$$$++@@@$$@@@$$$$@$$@@@+@$@$@@$$$$@@@+$$$$@@+@$+@@##+@+@@$$$$@@@@$$$$$$$$$@@@+++#+",
"......++$@@@+$$+$$$$$$$@@@$++@$+@@$@@@$@$$$$$$@@@$+@$@$$$@@$+@@$$$$$++++$@+#@++$++@@$@++@$@$$$$$$+@@@$@$#.",
".......#+++@$$$+@$@$$@$@@+$$@@@++@@@@$$$$@@$$$$$+@+$$$@@@@+++$$$$$$$@$+$@$@@@++++@@$$@@$@$$$$$$$$$+@$$....",
"..........+$$$+@@@$$$$$@$+@$$@++$+@@$@$$@@$@@$$$$$$$@@@++@$++$$$$$$@$$$$+$++@+$$@$@$$$@$@@@@$$$$$@$$@@....",
"..........@$$$+$@$@@$$$$$$+@$@@$+@@+$@$$$$$@@$+$$$$@$$$$$@@$$$$$$$$$$$@@++@@$+$++@@$$$$@++@$$$$@$$@$$.....",
"...........@$$+$$$@$$$$$$$@+@$$$@+@++$$$$@$@$$$$$$$$@$$$$$$@@$$$$$$$$$@$@+@@@@@@@+@$@$$$@++@@$$@@$$@......",
"...........@$$$+$$$$$$$$$$+++$@@$$$@++$$$$$+$@$$$$$+$$$$$$+++@$$$$$$$$@@@@@$$$$$@+@@$+$@@@@@+@$@@+$.......",
"...........@$@++@$@@@$$$$+@@$+$@@$+@+++$$$$$++$++$$$$@$$$@$++@$$$$$$$@$$$@$$$$$$$$@+@+@@+$++.+$$++........",
"...........$$@@+$$$@@$$@++@+@+$$@@@++$+@$@$$@$@++$$@+@@$$$@$+@@@$$$$@@@$$@$$$$$$@$@+@@@@+.................",
"............$$$++@@$@@@++@+@+@+$$$@+@++@@@@$$+@$$$@@+$$@@$$@$++@@@$$@@$@$@$@$$$@$@$@+$$@+.................",
".............$@@+$$++@$$$@+@$$$$+$@$$++@+@$$$$$$$+@+@@@$$@$@$@++@@$$@$$$$$@$$$$$@$@@@@$+..................",
".............$$$$$$+$$@$+@@$$$$@@@@$$$++@+$$$$$@@@@@@$+@+$$@$+++++@$$@$+.$@$@@$@$@$@@@....................",
"..............$$$$$@$@$@$$+$$$$$++@$$@++@++$$$$@+@+@@@@@+@$$$$+@@+@@$@@$..@@..............................",
"...............$$$@$$$$@@@@$$$$$++@@+++@++$@$+@$@@@@$+++@$$$$$$@@@+++$$...................................",
"................$$$$$@$$$$$$$@$$$@@+$+@$+++@$$$$$@+@$@+@+$$$$@$$$$$$$$....................................",
"................$$$$$+@@$$$$+@$$$$$+@@@+@+++$$$$@+@@++@++@@$$$$$$+$$$.....................................",
".................$+@$++$$$+$++$$$$$$++$@@@@$$$$$$@@@@@@++$$$$$$$$$$.......................................",
".................$$$@$$$$$+$$++$$$$@@$+.@$$$$$$$$@$@@++@@@@$@@$$..........................................",
".................$$+$$$$$@$@@+@@$$$$$....@$$.$$$$@@++@@@++$@$.............................................",
"..................$$$$$$@@@@@@+$@$$$.........$$$$$$+@+@@$$................................................",
"..................$$$$$$@@@@++@$$$............$$@$$$$$$$$.................................................",
"...................$$$$$$@@@@$$@.................$@$$$$$..................................................",
".......................$$$$$$$$...........................................................................",
"........................$$$..............................................................................."};
