/* XPM */
static char * ter_0_45_xpm[] = {
"8 9 5 1",
" 	c None",
".	c #000000",
"+	c #555555",
"@	c #AA55AA",
"#	c #005500",
"....+@..",
"@+++++++",
"+#+#+##+",
"@+++++++",
"....+@..",
"....+@..",
"....+@..",
"....+@..",
"....+@.."};
