/* XPM */
static char * ter_0_07_xpm[] = {
"26 25 4 1",
" 	c None",
".	c #000000",
"+	c #005500",
"@	c #55AA00",
"...++++...................",
"..++@++++.................",
"++@@@@++@++...............",
".+@@@+@++@++..............",
".+++@@@@@@@+.+............",
"..++@@++@@@@@++...........",
"....+@..++@@@+@...........",
".........+@@@@@+..........",
".........+@+@+@+..........",
"...........+++@@@+........",
"...........+.+@+@++.+.....",
"..............+@@+@++.....",
"..............+@@+@++@....",
"..............+.@@@@@+....",
"................@@@@@++...",
"................++@@@@+...",
"................+.+@+@+...",
"..................+@+@+.+.",
"..................++@@+++.",
"..................+++@@++.",
"...................+@+@+++",
"...................+@@@@++",
"...................+@+@@+.",
"...................+++++..",
"....................+....."};
