/* XPM */
static char * ter_0_16_xpm[] = {
"17 17 3 1",
" 	c None",
".	c #000000",
"+	c #555555",
"......+++++......",
"....+++++++++....",
"...+++++++++++...",
"..+++++++++++++..",
".+++++++++++++++.",
".+++++++++++++++.",
"+++++++++++++++++",
"+++++++++++++++++",
"+++++++++++++++++",
"+++++++++++++++++",
"+++++++++++++++++",
".+++++++++++++++.",
".+++++++++++++++.",
"..+++++++++++++..",
"...+++++++++++...",
"....+++++++++....",
"......+++++......"};
