/* XPM */
static char * ter_0_40_xpm[] = {
"3 6 4 1",
" 	c None",
".	c #005500",
"+	c #000000",
"@	c #55AA00",
"..+",
"..@",
"+@.",
"+@+",
"+.+",
"+.+"};
