/* XPM */
static char * ter_0_38_xpm[] = {
"7 15 4 1",
" 	c None",
".	c #005500",
"+	c #000000",
"@	c #55AA00",
".++++++",
"+.++.+.",
"+...@@+",
"++..@@+",
"+++@@@+",
"+++@..+",
"+++@..+",
"+++@.++",
"+++@.++",
"+++.+++",
"+++.+++",
"+++@+++",
"+++.+++",
"+++.+++",
"+++.+++"};
