/* XPM */
static char * ter_0_31_xpm[] = {
"11 11 6 1",
" 	c None",
".	c #000000",
"+	c #550000",
"@	c #AA0000",
"#	c #AA5500",
"$	c #FFAA55",
"...+@@@+...",
".+@#####@+.",
".@#$#$$#$@.",
"+#$####$#$+",
"@#$##$####@",
"@$##$$$#$#@",
"@$#$#$$#$#@",
"+#$####$##+",
".@#$#$$#$@.",
".+@#####@+.",
"...+@@@+..."};
