/* XPM */
static char * ter_0_32_xpm[] = {
"4 12 4 1",
" 	c None",
".	c #550000",
"+	c #000000",
"@	c #AA0000",
"..++",
".@++",
".@++",
"..++",
"+.++",
"+..+",
"++.+",
"+..+",
"+.++",
"..++",
".+++",
".+++"};
