/* XPM */
static char * ter_0_03_xpm[] = {
"72 24 6 1",
" 	c None",
".	c #000000",
"+	c #AA5500",
"@	c #550000",
"#	c #AA0000",
"$	c #FFAA55",
"...............+@+###......@@@@.........................................",
"..............@++#+#+++##@@###+#........................................",
".............+@###+$++#@@#@#$##+........................................",
"............+@@@@##++++$$@$@+$###...###@................................",
".........$#$+##@#@#+$$+$+#+$$+$+$#+$#$###+..............................",
"........#$$$+###@@$$+$$++$+$$$$++#$$#+$@@#++........#+@#@@+@+#..........",
".......+##$+++###@+$$+###$+$#+$#++$$$+@$+#++#++#+..+#$+#++#@+$+.........",
"......####$+$+++##$$+$$#$++$$$+#@#$$++$$+####+++++$##$+++@#+++++$.......",
".....@@@#++#++#@#$@$$##+$$$$$+#@+$$+$$$$$++$++$$$$+$$#$++#++#+++$$$$....",
".....@@###+#+++@###$#@#$+$$$$##@$$$@$$#$$$$$+###$+$$$$$#++@@@@+#$$+$$...",
"....@#@####+#+++@@##@#$$+###+#@++@+#$+$$$$$$$+@##++$$$####@#@@+++#+$@$+.",
".@@@@##@###++##@#@#@##$+++@#+#+##@@@###$$$$$$$@@@#$+$+++@@#@@@@++$###+$$",
"@@@@@@#@@@@####@+@@##@+$+$#@@@+++@#@@###++$$+@@@@@#+$$+##@##@+@#+####+#+",
"@@@#@##@@#@@###@@@@@#@+@+##@@@##@@+++#@@#++#+@@@@@@@$+#+@+@+#+@@@#+@#++$",
"@@@@@@#@@#@@@#@@@#@++@@+#+#@@@##+++$++#$@+@@@@@@@@@@+##++@@@@##@@+@@###@",
".@@#@####@##@##+##@#+###+###@@##+####$$#@@@@@@@@@@##@@@++#@###@@@@+###+.",
"...@@#@####@@@@#+#@###@#+#@#@@##+@+#+#$#@@##@@####+$++#@@@@@@@@#@@@#....",
"...@@@#@#@#@##@@#@@@@####@#@@@@##@#$#+###@@@#@@#@@@@#+#+#@@@#@@@@@@.....",
"....@@#@##@####@@##@@@@@#@@@@@#++@@+#@@##@@@@@@@@#@@@####@@##@@@@.......",
".........@#@#@#@##@####@@##@@@#@#+@##@@#@##@#@@@@#@@@#.@#@@##@@.........",
"...........##@####@@#@#@@@#@@#@@@@@@@@@#@#@@@@@@@#@@##..................",
".............###@#@@@##@@@@@@@@@@@@@@####@#@@@@@@@@@@...................",
"....................@#@@@@@@@@@@@@@@@@@#...@@@@@@@......................",
"...................................@@@@................................."};
