/* XPM */
static char * ter_0_47_xpm[] = {
"6 8 4 1",
" 	c None",
".	c #000000",
"+	c #AA55AA",
"@	c #555555",
"..+@..",
"..+@..",
"+@@@@@",
"+@@@@@",
"..+@..",
"..+@..",
"..+@..",
"..+@.."};
