/* XPM */
static char * ter_0_33_xpm[] = {
"13 14 4 1",
" 	c None",
".	c #550000",
"+	c #000000",
"@	c #AA0000",
"..+++++++++++",
"+..++++++++++",
"+.@+++++++++.",
"++@++++++++..",
"++..++++++..+",
"+++.++++++.++",
"+++..++++..++",
"+++..++++.+++",
"++.++.+++.+++",
"++.+++.+..+++",
"++.+++++.+.++",
"+.+++++..+.++",
"+.+++++.+++.+",
"++++++.++++++"};
