/* XPM */
static char * ter_0_04_xpm[] = {
"71 83 6 1",
" 	c None",
".	c #000000",
"+	c #AA0000",
"@	c #550000",
"#	c #AA5500",
"$	c #FFAA55",
".......................................+@+@............................",
".....................................@@@@@@@...........................",
"....................................@@@@@++#+..........................",
"...................................@@@@+@#++#..........................",
"..................................@@+@@@@++##+.........................",
"..................................@+@@@@+@@+##+........................",
"..................................@+++@@@@@#$#+........................",
".................................@@@@@@@#@@##$#........................",
".................................+@@@@@@@####$$........................",
".................................@@@@@@@@#$+##$........................",
".................................@+@+@@+++###+#........................",
".................................@@@@@@@+++#+$$+.......................",
"................................@@+@@+@++++@+#++.......................",
"...............................@+@@@@@++++@@#$$#.......................",
"..............................@@+@+@@@+@+@@###+$.......................",
"..............................#++++@#+@@@++++$$$.......................",
"..............................+++@@+@@@@######$$.......................",
"..............................++@#++++++####$$$$.......................",
".............................++@++++@++++##$#$$$.......................",
"............................@@@+@@++@+#+##$$$##$$......................",
"..........+@++#$#$$.........@@@@@@+++#@$#$$$$$#$#$.....................",
".........@@+@+#$#$$$........@@@@@+++++#$$#$$$$$$$$#....................",
"........+@+#@$$###$$$.......@@@@+#+#++###$$#$#$$#$$+...................",
"......@@@++++@+#++##$#.....@@@@@@@@++@++####$$$$$$#+...................",
".....@@@@++@++#+$#$$$$$....@@@@@++++++@++#$####$$$$#...................",
"....@@@@@++@+++++##$#$$....@@@@@++@##+@++##+##$+$##$...................",
"....@@@@@@++@++#####$$$$@+@+@@+++@+@+#++++#++###+@#$...................",
"....@@@@@++++++###@$$$#++@@@@@+@@@##+#++@+@@##++###$...................",
".....@++@++++########$$#++@@+@@@+@++@@++@@####+@##$$+..................",
".....@@@@@++####+#$+##$##++@+@@++@@@#++@@@+++#@###$#$..................",
".....@@@++#+#######$$$#$####++@+#@@++@@@++++@@+####$$..................",
".....@@+++###++@$$$$$#$$#+#@@+@#@+@@@@@@++@@@@#$##$$#..................",
"......+++++++++#####$@$$###@+#+@+@@+@@+@@@+@@#+#$#$$#+.................",
".......+@###++@@#@@$$$#$$$$#++@#@@@@@++@+@@+++###$$$#$.................",
".......@++#+++++@@###$$$$+$++++###@+@+@+@@@++@$##$$#$#.................",
".......@@++@+++@##@#@#+$$##$##+#+@##@@@+@@++++##$#$++#.................",
".......@+++@@+@@+##@++$##$$$#$@#++#++@@@+#@@@###$$$+$#.................",
".......@@@@@@@@@+@+++@##$#+###+#+#+#@++@@+@@+###$$#$$+.................",
".......@@@@@@@@@+@#++#+@#++@#+$###+#@+@@@@@@+#$#$#+++@.................",
"........@+@@@@@+++++@##+++++$#+$#+#+$#+++@@@+#$###++++.................",
".........@@@@@@@@@+++###@@+##$$$$##+++#++@@@++##@++++@.................",
"...........+@@@++++++#+@@++##$$$$$#$##+++@+@@++#+++@+@.................",
"...........@+@++++@+++@++$@#+#$$$$$$#$$##++@@++$#++@+@.................",
"..........@+@@@@++@@@@@@+#$##$$$$$$$#####+#+@@@#@+@@@@.................",
".........+@@+@@+@+@@@++@+$$$#$$#$$$$#$###++@@@+@@@@#@@@................",
".......###@@++@@++@@@#@@+#$$#$$#$#$$$#$$$##++@+@#$#+#$@+...............",
"......##+++@@+@+@@+@#+#+++$$$$$$$#$$##$$###@+++@+@$$@$##@..............",
".....+++++++++@+@@+@+##+@+$#+#$#+##$$$$$###+++#++@#+$$#$#..............",
".....+@+++@@+@+@@@++@+#++++####+###@#$$#$#$#+#@#$$$$$$#$+..............",
".....+++@++@@@@@@@+@###+#@+#+#+##$$##$#$$++##$#$#+$#$$$##..............",
"....@@+++@@@@@@@@@@+#++++@@#####++++#$#$$#++$##$$$$$##@@+..............",
"....@+@++@@@+@@@@@@++++@@+#@#+#++#$$@@$$$#$#$##$$$#$#####..............",
"....@@@+@@@@@@@+@@@+@+@@@@+#+#++##+@@@$$##$$$$$+$$####@#@..............",
"....@++@@@@+@+@@@@@@@@@@+#+#+#@##@@+#$$$$#$$#$+@$$##+##@@..............",
".....@@@@@@@+@@@@@@+@@+#++@##@@@@@#+$+$$#$$$##+@+$$@+#+@@@.............",
".....@@@@+@@@@@@@@+@++@++#+##@@@@@#####$$$$$#++@@+##+++@@@.............",
"....@@@@@@@+@@@@@+@@+@++@###@@@@@@@####$$#$$##++@@++++@+@++............",
"...@@@@@@+@@@@+@@+@+@@@##++@@+@@+####$$$#$#+#$++#@++@++@@+@............",
"..@@@@@+@@++@+@++@+@@@#@#++@+@@@@++++##+@###$#@#+++@@+@@@+++...........",
".@@@@@@@@@+++@@+@+@+@+@+@+#+++@++##+++#++#+#$+##++++@@@+++##+..........",
"@@+@@@@@@@@+@+++++@+@++@@+++@+@@++@@+#@+##+$#+$#+@+#@@@#$@$###+$.......",
"++@+@@@+@@@@@+++@@@@+@++@@##@+++@+++++@+####$##+++@@$+#@$##$$+#$#......",
"@@+@@@++@++@+@@+@@+@@+###@@+#++++++@@@@@@@#+$++@@@+#++#$+$$$$#####.....",
".@+@@++@+@++@@@@@@+@+###+##++#+++@@+@++@@#++++@@@###$+@$#$$$$$$$$#.....",
"..@+@+++++++#+@@@@+@+##.....##+++++@@+@@@##+@@@@#+$$$$$##$$$#$+$##.....",
"...++@++###+#++@@++++++......@+#+@@@@+@@+@@@@@@@$#$#+$+$#++#++#@+@.....",
"....@+@+++###++@++#+++........###+++@+@@@@@#@@@@++#@$#+#+$#+++###$.....",
".....+#@###+++++@@++#...........+#@++@@@++++#+@@@#$+++++++++##$@##.....",
"........++##++++#+#..............#+++@@@@++###@+@+#@@+@@++@++###$$+#...",
".........##++.@+#+................#+++@@@++@+#+@@@++@@@+@@#++#$$$####..",
"..................................+#+++@@@++++++++@@+@@@@@+##$$$$$$+##.",
"..................................#+++@@@@+++++++@@+@@@@@++#$$$$$$#$###",
"..................................#+#+@@++@+@+++++@@@@@@+###$$$$$$$$$@@",
"...................................#++++++@++++.+@@@@@@+@#$$#$$$$$##+#+",
"....................................++@++@@@@@...@@+@++@@#+$$$$$$$$##$.",
"......................................+@+@@+@.....@@+@@@+#$###$$#$+$@..",
"...................................................@+@@++++#$###$$$+...",
"....................................................++++@@+++$$#+@.....",
"....................................................+@+@+@@+@+@#.......",
".....................................................+@@++@@++#........",
"......................................................+@@@+@+#.........",
".......................................................@+@@@@..........",
".........................................................@@@..........."};
