/* XPM */
static char * ter_0_34_xpm[] = {
"12 13 4 1",
" 	c None",
".	c #550000",
"+	c #000000",
"@	c #AA0000",
".+++++++++++",
".+++++++++.+",
"..++++++++..",
".@+++++++..+",
"+..+++++..++",
"++.+++++.+++",
"++.+++++.+++",
"++..+++..+++",
"+++.+++.++++",
"+++.+++.++++",
"+++.++++++++",
"+++.++++++++",
"+++.++++++++"};
