/* XPM */
static char * ter_0_15_xpm[] = {
"40 15 9 1",
" 	c None",
".	c #000000",
"+	c #005500",
"@	c #55AA00",
"#	c #AA55AA",
"$	c #550000",
"%	c #555555",
"&	c #AA0000",
"*	c #AA5500",
"..++....................................",
".+@@#.+++........+++........+++....++...",
"+##@@#@@@#++++..+#@#+..++..+#@@+..+#@#+.",
"+##+#@##@@@@@#+#+@@@#++##+.+@@@@+.+#@@#+",
"$%%###%%#@@@@@####@@#+#@@#+#+#@@#+#+#@@+",
"$$%#%%$%#@###@@%%##@%+%#@@+%%%#@#+++#@@+",
"$$%%$$$#@#%%#@#%$%%#$%$%##%%%%##%%%++@#$",
"$&%%$$$##%$$%##%$%##$$$%#%$%%##%%%%%##+$",
"$&&$$$$%#$$$%##$$$#%$$$$#%$$%##%$%%%##$$",
".&*&$&$#$$&$$%#$$$%$$&$$%$&&$%%$$$%%#%$$",
".$&**&$$$&&&$#%$&$&$&&&$%$&$&%$$$&$%%$$.",
"..$$&*$&$$&*&$&**&&*&*&*&&&$&*&$.$&$$&$.",
"....$&*&$.$**&$$&**&$$$***$.$&$..$&*&$..",
".....$$$...$$$..$&&$...$$$........$$....",
".................$$....................."};
