/* XPM */
static char * ter_0_21_xpm[] = {
"65 37 7 1",
" 	c None",
".	c #000000",
"+	c #AA55AA",
"@	c #555555",
"#	c #550000",
"$	c #AA0000",
"%	c #AA5500",
"..........+++....................................................",
".......@++++++...............@@@@................................",
".....@@+++++++.............@++++@@...............................",
"....@@++++++++............@+@@+++....@@+++.......................",
"...@@+++@@+++......+++....+@@++++...@@@@@++......................",
"...@++++@@@@......@@@++..@+@@++@@...##@@@@+@...@@....@@..........",
"..@++++@#.........#@@++@.+@@+++@....$$##@@@..+++@@..@@@@@@.......",
".@+++++@#.........#@@@+@@+@+++@......$$#@@.++@++++.@@@@@@@@......",
"@@+++++@..........##@@@.@@@+++@.......$@.@++@@++++@.@@@@@+@@.....",
"@@++++@@...........$#@#.@@@+++..........@++@@++++@@.##@@@@++@....",
"@@++++@@............$##@#@@++@..........++@@++@@+@@.@#@@@@+++@...",
"@+++++@.............$##@#@+++..........@+@@+@@@++@..@##@#@@+++@..",
"@++++@@..............$.@#@+++.@@.......@+@@@@@++.....@##@#@@++@..",
"@+@++@@..............$.##@@++.++.......+@@@@@++.@.....@###@@+++@.",
"@+@+@+@................##++++.@+......@@@@@@++@#@@.....@#$#@@++@.",
"@+@+@+@................#@@+++@#+@.....@@@@@@++.@@@.....@##$#@@+@.",
"@+@@++@................##@++++.++.....+#@@@++@#@@@......@#$$@@++@",
"@+@@+++@...............#$@@+++.@+@....@#@@+++.@++@......@@$$#@++@",
".++@+++@...............#$@@+++@#++...@@#@@+++.@++@......@@#$#@@+@",
".@+@+++@...............#$@+@+++.++...+@#@++++.@@+@.......@#$$@@+@",
".@+@@+++...............#$@+@+++.@+@..+@#@++++.#@+@.......##$$#@+@",
".@@@@++++..............%$@+@@++@#++..+##@++++.#@++.......##$$#@++",
".@@##+++++.............%$++@@+++.@+..@##@++++.#@++.......@#$$#@++",
"..#@#@+++++............#$@++@@++@@+..@##@@+++.@@++.......@#$$$@@+",
"..@@#@+@+++++.......@@.#$#++@@+++.@..@#$@@+++.@+@@.......@###$@@+",
"...@#@@@++++++++@@@@@@.##$@++@@++@#..@#$#@@++.@+@.......@##@##@@+",
"....#@#@++@++++++++++@@##$@++@@@++...@#$#@@++@.@@....@@@@#@@@#@@+",
".....##@++@++++++@@+++@.#$#+++##+++..@#$#@@@++@....@@@......@#@@+",
".....##@@@@@++++++@@+++@#$#@++@#@++@.@#$#@+@++++@@@.@.@@++@+.@@@@",
"......#$#@@@+++@++@@@++@.#$##+@#@@++.@#%$#+@++++++@@.@@++++@+.@@@",
".......$$##@@@+@@++@#@+@.#$%##+@#@@+.+@#%#+@@+++++++.#@@+++++@.@.",
"........$%$#@@@@#@++##@@.@#%$#@@##@+#@@#$$@+@+++++++.#@@@@+++@.@.",
".........$%$#@@@##@+@$$#...#%$##$$@@@.+@$%$@@@@+++++.##@@@++@@...",
"..........#%$$####@#@#$....##$$#$$@@@.@@$%%$#@@@++++.###@@@+@....",
"............#$$$###.........##$$%%$#@@.+#$%%$#@@@@@@..####@@@....",
".............................##$$$$$##..@#$%$$#@@@@@@...##.......",
"..............................#####......#.##@.@................."};
