/* XPM */
static char * ter_0_48_xpm[] = {
"6 4 4 1",
" 	c None",
".	c #AA55AA",
"+	c #555555",
"@	c #000000",
".++.@@",
"++++@@",
"++++@@",
"++++@@"};
