/* XPM */
static char * ter_1_01_xpm[] = {
"26 12 4 1",
" 	c #550000",
".	c #555555",
"+	c #AAAAAA",
"@	c #FFFFFF",
"+@@++@@@+++@@@@@+++@@@++++",
".++..++++...++++...+++...+",
" .+++++.++...++..++++++.+@",
" ..++....+++..+++++..++++@",
" .++....++.+++...+.....++@",
" ..    ..  ...  .     ...+",
"@@@+++@@@+++++@@@++@@@+++@",
"+++...+++...+.+++..++++...",
".++.++++++.+@ ..+++++.++..",
"..++++..++++@ ...++....+++",
"++..+.....++@ ..++....++.+",
".. .     ...+ ...    ..  ."};
