/* XPM */
static char * ter_0_09_xpm[] = {
"26 8 4 1",
" 	c None",
".	c #000000",
"+	c #005500",
"@	c #55AA00",
".........+.........+......",
".+.....++@++.@....++@+....",
"@+@+.+@+@@@@+++@++@++@+@+.",
"++@+@@@@@@@@@+@@@@@@+@+@@+",
".+@@@+@++@@@@@@@++@@@@@@@+",
"..++@+.+.+.++@@++.+@+@+++.",
"...++.......+@+.....++....",
".............+......+....."};
