/* XPM */
static char * ter_0_36_xpm[] = {
"31 10 4 1",
" 	c None",
".	c #005500",
"+	c #55AA00",
"@	c #000000",
"...+.@@+..@@@.@@@@.+@@@..@@@.+.",
"@..+.+.+++@@.+@@@@.+@@@@.+.++.@",
"@@.+.@@++.@.++@@@@.+@@@@..++..@",
"@@@@.@@.@.@.++@@@@@++@@@..+@@@@",
"@@@@@@@.@@@.+.@@@@@++@@..+@@@@@",
"@@@@@@@@@@@..@@@@@@.++@.++@@@@@",
"@@@@@@@@@@@.@@@@@@@.@..++@@@@@@",
"@@@@@@@@@@@@@@@@@@@@@@.+@@@@@@@",
"@@@@@@@@@@@@@@@@@@@@@@..@@@@@@@",
"@@@@@@@@@@@@@@@@@@@@@@.@@@@@@@@"};
