/* XPM */
static char * ter_0_37_xpm[] = {
"10 20 4 1",
" 	c None",
".	c #005500",
"+	c #000000",
"@	c #55AA00",
"..++++++++",
"+...+++++.",
"+.@.++++.@",
"+.@..+++..",
"+..@.++.@+",
"++.@..+..+",
"++.@@..@.+",
"+...@@.@++",
"+++..@@@++",
"+++..@.@++",
"+++.@@.@++",
"++++@@+@++",
"++++@.+.++",
"++++@.+.++",
"++++@.+.++",
"++++@.++++",
"++++@.++++",
"++++..++++",
"++++.+++++",
"++++.+++++"};
